<?xml version="1.0" encoding="UTF-8"?>
<svg id="Layer_2" data-name="Layer 2" xmlns="http://www.w3.org/2000/svg" viewBox="0 0 504.81 483.84">
  <defs>
    <style>
      .cls-1 {
        fill: #28a2de;
      }

      .cls-2 {
        fill: #fff;
      }

      .cls-3 {
        fill: #abf6d8;
      }

      .cls-4 {
        fill: #8cdcfd;
      }

      .cls-5 {
        fill: #04203a;
      }

      .cls-6 {
        fill: #feda4b;
      }

      .cls-7 {
        fill: #41ccb7;
      }

      .cls-8 {
        fill: #022c48;
      }
    </style>
  </defs>
  <g id="Layer_1-2" data-name="Layer 1">
    <path class="cls-8" d="M71.71,34.75c.76-.02,1.5-.05,2.26-.05l146.77.02,44.86-.05c12.96-.01,30.77-2.36,40.33,7.79,8.44,8.95,6.73,23.59,6.68,35.05l-.15,34.1,55.24-.03c15.75-.02,36.64-2.98,48.57,8.77,9.23,9.08,8.53,19.5,8.45,31.23,12.63-.04,35.6-2.18,46.5,3.63,6.11,3.25,10.61,8.45,12.53,15.14,1.54,5.35,1.57,50.02.69,56.54-.47,3.47-1.61,6.25-3.24,9.29,25.25,5.24,23.65,23.22,23.53,43.39l.03,26.29c.07,11.28.69,19.9-8.08,28.49-6.39,6.26-13.73,8.14-22.44,8.25-8.24.11-16.47,0-24.7,0h-57.84s.04,99.99.04,99.99c-.02,12.73-.73,21.66-10.23,31.51-11.53,11.95-29.77,9.58-45.55,9.5H122.24s-61.64.02-61.64.02c-21.09,0-45.07,3.81-56.57-18.57-3.65-7.11-3.83-11.48-3.83-19.43-.05-54.11-.01-108.21-.03-162.32v-46.92c0-10.7-1.22-22.18,3.08-32.08,3.41-7.84,12.51-16.12,21.24-17.05,12.85-1.37,26.92-.72,39.94-.71l83.96.02c-.16-11.93-.06-23.97-.04-35.91l-54.18.03c-8.81,0-17.98.35-26.74-.54-9.59-1-19.77-10.43-20.33-20.36-.93-16.38-.26-33.43-.42-49.85-.21-21.09-2.94-42.84,25.03-45.17Z"/>
    <path class="cls-2" d="M12.77,271.53h196.46c-.06,13.65-.32,27.46-.12,41.11.33,22.85,13.27,29.96,33.63,29.95.1,7.84-1.73,27.89,1.77,33.81,1.65,2.79,4.21,3.51,7.17,4.33,7.82-1.67,13.12-8.75,18.89-14.16l25.91-24.01h82.27s.03,75.57.03,75.57c0,8.57-.04,17.16-.01,25.73.03,8.37-.79,15.12-7.05,21.45-6.86,6.95-20.1,5.26-29.34,5.25l-30.41-.04-31.73.02-51.04-56.62c-7.36-8.19-14.6-16.46-22.03-24.59-5.48-5.99-14.95-9.62-21.97-3.94-9.82,7.94-19.1,18.16-27.99,27.26l-43.5-47.13c-5.42-5.91-10.92-11.8-16.31-17.76-4.31-5.52-13.01-12.01-20.76-9.94-11.19,2.98-21.19,21.69-28.87,30.38-6.51,7.36-11.94,15.49-18.09,22.95-5.71,6.93-12.02,14.91-16.88,22.14-.74-46.55-.09-95.04-.02-141.76Z"/>
    <path class="cls-8" d="M153.9,300.77c17.77-1.8,33.63,11.18,35.37,28.96,1.74,17.78-11.3,33.59-29.08,35.27-17.7,1.67-33.42-11.29-35.15-28.98-1.73-17.7,11.18-33.46,28.87-35.25Z"/>
    <path class="cls-3" d="M153.32,314.38c10.2-2.08,20.17,4.49,22.27,14.68,2.1,10.2-4.44,20.17-14.64,22.3-10.23,2.13-20.24-4.44-22.35-14.67-2.11-10.23,4.48-20.23,14.72-22.32Z"/>
    <path class="cls-8" d="M309.57,405.07c1.81-.24,3.91-.37,5.58,1.16,7.3,6.78,14.29,14.88,20.27,22.85,2.19,2.62,2.9,18.34-.11,19.95-11.63,6.25-10.72-5.96-10.61-11.12-.13-4.54-8.94-12.66-12.42-16.37-4.11.02-23.27,1.09-25.31-1.69-9.6-13.05,11-11.42,17.91-11.34,1.49-1.17,3.16-2.33,4.7-3.46Z"/>
    <path class="cls-8" d="M338.07,365.58c10.01-.88,10.18,8.39,7.76,15.53-1.89,5.59-16.05,16.43-21.57,18.75-1.75-.49-3.35-.93-4.65-2.16-9.27-8.68,1.17-12.13,8.01-15.75,1.73-.91,4.45-3.26,6.03-4.59,0-5.47-.75-8.96,4.42-11.78Z"/>
    <path class="cls-3" d="M312.83,124.55c13.21.03,81.21-1.42,88.87,1.34,17.08,6.15,6.4,25.67,11.41,35.01.95,1.77,2.47,2.77,4.39,3.26,3.23.83,7.12.47,10.45.44,7.97-.07,28.23-1.19,34.68.71,3.44,1.01,6.09,3.27,7.75,6.43,1.27,2.42,1.81,5.07,2.11,7.77.61,5.52.15,11.38.18,16.95.03,8.51.57,17.36-.19,25.83-.18,2.04-.69,3.98-1.26,5.94.34,1.15.43.65-.16,1.71-4.47,8.11-12.14,6.82-20.07,6.9,1.25.15,7.46.21,7.66.39-13.68.96-37.93.26-52.13.16l-77.29-.05-106.52.11-30.49-.1c-6.82.03-19.12,1.47-24.81-2.23-.28-.5-.5-.75-.57-1.26-.13-.25-2.28-2.55-2.51-2.79-1.74-1.84-2.68-3.68-2.95-6.24-.7-6.54-.48-13.58-.38-20.16.24-15.33-.2-30.64.05-45.95.03-2.11.67-5.54,2.83-6.48,1.95-.9,4.08-1.44,6.24-1.58,10.16-.18,20.59-.07,30.74-.06l63.23.08c7.84,0,16.21.33,24.01-.22,14.94-1.06,23.72-11.44,24.71-25.92Z"/>
    <path class="cls-5" d="M471.22,228.22c.34,1.15.43.65-.16,1.71-4.47,8.11-12.14,6.82-20.07,6.9,1.25.15,7.46.21,7.66.39-13.68.96-37.93.26-52.13.16l-77.29-.05-106.52.11-30.49-.1c-6.82.03-19.12,1.47-24.81-2.23-.28-.5-.5-.75-.57-1.26,3.24,1.33,5.62,1.96,9.16,1.97,20.03.07,40.06.03,60.1.03h119.1s68.71.02,68.71.02c12.07.01,24.86.36,36.9-.4,4.8-.3,7.52-3.61,10.41-7.26Z"/>
    <path class="cls-8" d="M185.93,174.45c8.11-.08,19.32-1.04,25.71,4.46,8.58,7.37,7.68,21.54.69,29.49-7.11,6.38-17.34,5.22-26.37,5.13-.24-12.79-.04-26.26-.04-39.08Z"/>
    <path class="cls-3" d="M194.35,181.51c4.25-.08,8.03,0,11.35,2.96,5.86,5.2,4.8,13.25.31,18.78-4.03,3.03-6.73,2.91-11.66,3.38-.16-8.21,0-16.87,0-25.11Z"/>
    <path class="cls-8" d="M355.94,183.72c15.55,1.54,17.15,24.19,3.94,29.31-4.55,1.76-6.99-.07-10.86-1.99-.62,1.28-.33,4.24-.31,5.89.1,1.86.33,3.05-.35,4.78-1.99,1.54-4.9.97-7.63.87v-38.46c2.32.02,6.42-.28,8.24.68-.22.86-.18.74-.21,1.64,2.72-1.48,4.05-2.42,7.19-2.7Z"/>
    <path class="cls-3" d="M352.65,190.51c9.66.16,10.53,11.46,3.87,16.2-10.51.56-10.77-11.76-3.87-16.2Z"/>
    <path class="cls-8" d="M417.48,183.99c7.98-.1,14.55,6.27,14.68,14.25.14,7.98-6.21,14.57-14.19,14.74-8.03.17-14.67-6.22-14.8-14.25-.14-8.03,6.28-14.64,14.31-14.74Z"/>
    <path class="cls-3" d="M416.2,190.48c9.27.09,10.12,11.46,2.92,16.05-9.69-.17-9.92-11.61-2.92-16.05Z"/>
    <path class="cls-8" d="M231.4,184.14c12.46-.95,15.81,5.56,15.94,16.86-3.74.02-18.23-1.87-18.79,2.37,1.25,2.54,4.24,5.04,6.92,4.46,4.97-1.08,3.13-3.23,9.2-3.31l1.89.35.3.85c-7.87,18.5-32.89,3.33-25.09-13.63,2.03-4.41,5.3-6.37,9.63-7.95Z"/>
    <path class="cls-3" d="M233.86,189.53c2.64.42,6.38,2.06,5.65,5.28-1.51.97-1.54.62-3.67.66-2.76.09-5.62.84-7.1-1.77.76-2.3,3.07-3.23,5.12-4.17Z"/>
    <path class="cls-8" d="M450.92,183.68c13.84,1.08,10.27,18.31,10.24,28.86l-8.06.02c-.11-6.09,3.2-28.6-8.16-20.04-1.83,5.82-1.26,13.77-1.2,20.01l-8.02.03v-28.51c2.86-.07,4.83-.18,7.68.18.54,1.5.41,1.31.56,2.91,2.37-1.6,4.04-3.02,6.95-3.46Z"/>
    <path class="cls-8" d="M258.9,184.16c4.26-.25,15.41.4,14.51,7.61-.13,1.01-.41.88-1.26,1.44-4.73-.2-8.28-4.79-12.74-2.92-1.11,1.7-.98.83-.68,2.62,3.44,4.3,13.78,2.26,15.38,8.22,1.95,7.27-2.86,10.71-9.36,12.4-4.68.08-14.01-1.7-15.07-6.94.54-2.02.07-1.13,1.59-2.71,3.75-1.23,7.47,3.8,11.19,4.2,2.85.3,4.2-.98,4.18-3.7-3.23-4.82-14.09-2.56-15.76-8.66-1.72-6.29,2.96-10.05,8.03-11.56Z"/>
    <path class="cls-8" d="M288.03,184.12c8.68-.56,12.23,1.29,15.93,9.28-2.42.2-4.89.46-7.31.69-9.23-10.96-15.77,6.49-8.74,11.87,4.17,3.19,7.75-2.96,10.19-3.17,2.51-.08,3.45-.47,5.16.99.93,6.21-11.09,12.32-17.73,8.48-11.99-6.93-11.66-23.71,2.51-28.13Z"/>
    <path class="cls-8" d="M373.25,178.02l7.96-.04-.08,6.42,6.56-.22.03,6.83-6.57-.34c-.02,3.63-.43,8.23.42,11.71,1.71,7,5.46.12,6.34,6.69-.05,1.5.12,2.64-.8,3.74-19.25,2.88-11.27-12.44-14.43-21.68-1.49-.53-1.73-.46-2.71-1.71-.49-2.12-.42-2.25-.04-4.45.99-.4,1.66-.75,2.61-1.25,1.16-1.68.78-3.57.7-5.68Z"/>
    <path class="cls-8" d="M306.9,184.12c2.59-.03,4.81-.15,7.39.23.1,1.31.03,1.53.51,2.72,4.8-.6,9.23-10.52,9.11,4.38-6.53.12-8.84.84-9.19,7.97l.03,13.11-7.85.03c-.19-9.26,0-19.14,0-28.45Z"/>
    <path class="cls-8" d="M327.73,184.06l7.94.07c.1,9.41,0,18.96,0,28.38l-7.96.06.02-28.51Z"/>
    <path class="cls-8" d="M392.56,184.03h7.74s-.02,28.51-.02,28.51l-7.68.03c-.22-9.53-.11-19.01-.04-28.54Z"/>
    <path class="cls-8" d="M394.32,172.8c1.5-.7,3.27-.53,4.61.44,1.34.97,2.06,2.6,1.86,4.24-.2,1.65-1.27,3.06-2.81,3.69-2.3.94-4.92-.13-5.91-2.4s0-4.92,2.25-5.97Z"/>
    <path class="cls-8" d="M329.95,172.79c2.34-.7,4.81.57,5.62,2.87.8,2.3-.34,4.83-2.61,5.74-1.56.63-3.34.35-4.63-.73-1.29-1.08-1.88-2.78-1.55-4.43.34-1.65,1.56-2.98,3.17-3.46Z"/>
    <path class="cls-6" d="M226.61,248.61c2.07-.08,4.08-.06,6.14-.06h167.19s52.23-.01,52.23-.01c8.77,0,17.66-.12,26.42.2,3.5.24,6.8,1.81,9.18,4.3,4.79,5.01,4.57,11.5,4.45,17.98-.19,12.79-.21,26.05-.02,38.79.24,15.66-7.16,20.3-22.01,19.83-4.63-.15-10.45-.03-15.22-.06h-103.03c-7.2-.01-56-.77-59.43,1.2-7.74,4.45-29.25,25.13-36.95,32.22-.07-6.94,1.32-27.76-2-30.7-8.46-7.5-30.76,4.99-31.29-17.53-.45-19.07-.43-41.92.07-61.35.05-2.04,2.74-3.77,4.26-4.8Z"/>
    <path class="cls-8" d="M449.24,270.79c.29.17.59.34.88.51l.08,37.21c-2.4.08-3.86.1-6.24-.1-.31-1.17-.16-.83-.77-1.9-6.84.71-5.2,6.89-15.21.04-11.62-11.77-.82-34.04,14.56-23.23.14-3.98.02-8.32-.02-12.33l6.72-.2Z"/>
    <path class="cls-6" d="M435.85,286.48c2.61.17,4.88.64,5.76,3.36,1.59,4.89,2.4,11.33-3.39,13.09-9.5-1.04-9.37-11.86-2.37-16.45Z"/>
    <path class="cls-8" d="M263.64,270.86c2.67-.19,6.19-.17,8.94-.23-3.56,5.33-7.93,11.37-11.8,16.46,1.6,3.22,5.92,9.71,7.98,13.01l5.4,8.36-9.57.1c-3-4.86-5.97-9.61-8.74-14.61-1.95,2.04-3.13,3.73-4.8,5.98l.05,8.58-8.37.05v-37.92s8.39,0,8.39,0c-.06,5.95-.11,11.71-.4,17.66,4.32-5.51,8.53-11.75,12.9-17.45Z"/>
    <path class="cls-8" d="M348.13,280.75l7.09.09c.99,4.7,3.66,12.65,5.08,17.51,1.6-4.11,3.89-12.6,5.25-17.12l7.61-.2-9.26,27.46-6.93.06-4.6-12.88-.83-1.53c-1.65.92-4.48,11.77-5.3,14.38l-7.17.04c-2.8-7.75-6.73-19.61-8.76-27.43,2.62.3,4.91.24,7.54.24,1.52,5.98,3.39,11.06,4.45,17.29,2.03-5.99,3.94-11.88,5.83-17.92Z"/>
    <path class="cls-8" d="M384.17,280.85c7.72-1.86,15.48,2.89,17.34,10.6,1.86,7.72-2.89,15.48-10.6,17.35-7.72,1.86-15.49-2.89-17.35-10.6-1.86-7.72,2.89-15.49,10.61-17.35Z"/>
    <path class="cls-6" d="M386.21,286.53c9.8-.22,10.24,12.42,2.75,16.16-9.57-.18-10.68-11.82-2.75-16.16Z"/>
    <path class="cls-8" d="M283.92,280.62c12.34-.74,15.73,4.25,15.89,16.13l-19.48.07c5.88,12.75,9.62,3.33,17.37,3.59l1.4.38.38.71c-5,12.55-20.29,10.02-25.05-.87-3.73-8.52.39-17.05,9.49-20Z"/>
    <path class="cls-6" d="M286.23,286.09c2.75.16,6.77,1.23,6.22,4.73-1.43,1.07-1.52.69-3.74.75l-2.48.03c-2.35.03-3.62.28-4.9-1.93.77-2.04,2.99-2.88,4.9-3.58Z"/>
    <path class="cls-8" d="M321.77,280.59l7.92.08c-2.57,6.96-10.8,34.16-15.5,37.65-2.55,1.9-7.49,1.51-10.5,1.11-.83-.79-1.32-2.14-1.06-3.08,1.71-6.14,9.08.44,8.05-9.37-3.47-8.58-6.73-17.39-10.03-26.06l8.81.69c2.17,6.2,4,12.54,6.21,18.77,1.76-6.71,3.95-13.2,6.1-19.8Z"/>
    <path class="cls-8" d="M464.72,280.2c7.57-.28,10.59,1.5,13.43,8.3-.86.04-4.39.23-4.97.07-3.03-.82-5.63-3.73-9.11-2.55-1.18.4-1.59,1.14-2.11,2.21,1.88,4.28,15,3.41,16.08,10.9,1.04,7.27-4.89,9.27-10.66,10.48-7.44-.11-11.16-2.3-14.09-9.03,5.42-.23,4.78-.49,9.53,2.2,2.06,1.16,4.45,1.02,6.69.32,1.31-1.51.98-.68,1.26-2.45-2.49-4.27-22.78-3.57-14.61-16.38,1.79-2.81,5.54-3.54,8.56-4.07Z"/>
    <path class="cls-8" d="M405.18,280.6c1.4-.03,5.92-.45,6.95.73,1.01,1.16-.93.58,1.09,2.03,2.41-1.47,5.97-4.41,8.54-2.7.86,1.84.43,5.48.35,7.68-6.77.67-8.18.96-9.19,8.29-.31,3.49-.21,8.27-.23,11.88l-7.54.05.03-27.97Z"/>
    <path class="cls-4" d="M70.51,47.7c10.92-.51,25.01-.1,36.12-.1h68.34s72.81-.02,72.81-.02c12.81,0,25.67-.08,38.41.1,9.21-.04,13.39,5.17,13.53,14.11.2,16.74,0,33.46.04,50.21.01,6.65,1.3,15.99-3.29,21.38-1.87,2.2-4.54,3.33-7.24,4.14-7.56.84-20.82.38-28.82.36l-49.55-.02-91.61-.03c-14.7,0-29.42.07-44.13.06-11.97.28-16.12-5.14-16.04-16.83.14-20.29-.14-40.77.18-61.06.11-6.96,4.63-10.89,11.24-12.29Z"/>
    <path class="cls-8" d="M227.72,80.17c15.8-1.06,20.01,8.58,20.18,22.39-4.1,0-21.6-.35-24.92.31l-.43.99c.3,3.89,4.1,7.95,7.93,7.59,8.43-.79,5.08-4.46,14.86-3.23l1.13.08.46.74c-.87,3.96-6.76,9.25-10.59,10.12-27,6.14-35.06-33.59-8.62-38.98Z"/>
    <path class="cls-4" d="M228.26,88.06c3.84-.17,10.84,1.77,9.31,6.58-1.95,1.09-2.15.67-4.78.64l-10.82.11c1.59-4.22,2.28-5.35,6.29-7.32Z"/>
    <path class="cls-8" d="M107.21,67.53c12.53-.2,25.52-.03,38.08-.02l-.04,10.9c-4.41.07-9.03-.02-13.46-.03l.05,25.79.1,14.39-11.23.02c-.14-13.39-.06-26.79-.01-40.18l-13.48.06-.02-10.93Z"/>
    <path class="cls-8" d="M171.69,73.49l10.57-.04-.02,7.63,8.44-.02.04,8.51-8.46.03c.02,4.9-.46,11.21.39,15.94,1.02,5.7,4.5,3.08,7.41,5,1.12,2.01.72,2.62.7,5.13.05,1.47.23,3.36-1.88,3.49-23.24,1.38-14.99-16.26-17.62-29.04-3.93-2.05-4.64-.6-4.31-6.81.22-4.18,1.38-.66,4.16-2.99,1.02-2.22.67-4.32.59-6.83Z"/>
    <path class="cls-8" d="M195.58,67.52l10.68-.03c-.23,16.87-.03,34.16-.04,51.06l-10.53.02-.1-51.06Z"/>
    <path class="cls-8" d="M150.69,81.03c3.49.1,7.22.05,10.74.06l-.08,37.47h-10.62s-.03-37.53-.03-37.53Z"/>
    <path class="cls-8" d="M154.21,66.32c1.95-.75,4.14-.37,5.74.97,1.59,1.35,2.33,3.45,1.92,5.49-.41,2.04-1.9,3.7-3.89,4.33-2.95.93-6.1-.65-7.12-3.57-1.02-2.92.47-6.12,3.35-7.23Z"/>
    <path class="cls-7" d="M78.42,350.45c1.18-.07,3.53-.15,4.38.66,6.72,6.44,13.9,14.68,20.09,21.46l46.31,50.14c7.71,8.34,15.18,16.57,23.09,25.04,3.86,5.52,12.49,3.84,12.4-2.51-.07-5.23-15.45-19.57-18.94-23.41,4.91-4.97,22.47-23.78,27.4-25.96,4.24.31,21.35,20.8,25.25,25.12l39.71,43.9c1.6,1.77,3.22,3.7,4.79,5.51-3.14.2-6.54.29-9.69.31l-153.02-.17h-46c-11.27.01-26.8,2.19-35.1-6.37-7.92-8.17-6.43-21.08-6.33-31.51,3.36-4.72,9.03-11.33,12.76-15.99l23.17-29.32,17.58-22.42c2.9-3.72,8.83-11.79,12.13-14.48Z"/>
    <path class="cls-1" d="M29.11,199.17c11.27-.67,28.85-.12,40.52-.11h78.67c-.27,17.34-3.47,40.64,16.67,47.66,7.7,2.68,16.39,1.99,24.42,1.96h19.82s.05,10.26.05,10.26l-16.65-.06-179.81-.07-.12-26.91c-.05-14.08-1.38-29.29,16.45-32.73Z"/>
    <path class="cls-8" d="M42.65,219.34c3.59-.9,7.38.23,9.9,2.94,2.52,2.71,3.36,6.57,2.2,10.09-1.16,3.51-4.14,6.12-7.77,6.8-5.39,1.01-10.61-2.45-11.78-7.81-1.17-5.36,2.13-10.68,7.45-12.01Z"/>
    <path class="cls-8" d="M83.83,219.34c5.44-1.27,10.88,2.1,12.16,7.54,1.28,5.44-2.08,10.88-7.52,12.17-5.45,1.29-10.91-2.08-12.19-7.53-1.28-5.45,2.1-10.9,7.55-12.18Z"/>
    <path class="cls-8" d="M409.71,0c.78-.02,1.55,0,2.33.08,6.28.6,7.06,13.13,8.69,17.91,1.38,4.05,3.47,8.1,6.19,11.42,10.49,12.76,29.18,10.81,32.58,15.58.72,1.01.64,3.09.33,4.26-1.61,6.12-10.67,5.56-15.67,6.73-3.49.82-7.13,2.22-10.18,4.11-7.41,4.57-12.6,13.28-14.45,21.66-.83,3.74-1.08,7.69-2.08,11.37-.7,2.58-1.52,3.79-3.87,5.12-1.11.17-2.3.36-3.43.28-6.55-.46-5.62-13.43-6.76-18.18-1.04-4.31-2.85-8.78-5.5-12.35-10.64-14.27-30.51-12.7-34.09-17.46-.69-.91-.5-3.14-.21-4.2,1.52-5.69,9.93-5.25,14.53-6.27,3.47-.77,6.81-1.94,9.94-3.64,8.04-4.38,13.53-12.28,15.48-21.16.79-3.59,1.08-7.49,2.22-10.97.77-2.36,1.77-3.18,3.95-4.29Z"/>
    <path class="cls-2" d="M411.87,29.97c.53.6,3,4.1,3.67,4.98,4.73,6.13,7.86,8.79,14.29,12.83-8.27,5.47-12.85,9.84-18.09,18.32-5.86-8.77-9.47-12.48-18.26-18.13,8.62-5.75,12.74-9.33,18.38-18Z"/>
    <path class="cls-8" d="M459.73,81.07l.64.08c8,1.1,4.7,8.57,9.38,14.35,2.95,3.98,11.57,5.23,14.05,9.17,3.46,5.49-8.16,9.01-10.81,10.86-6.38,4.47-4.64,14.31-10.75,17.93-9.33-.53-5-10.08-10.89-15.83-5.08-4.96-22.23-8.45-8.23-16.37,3.16-1.79,6.77-3.89,9.12-6.69,3.98-4.49,1.41-11.15,7.49-13.51Z"/>
  </g>
</svg>